<svg width="68" height="67" viewBox="0 0 68 67" fill="none" xmlns="http://www.w3.org/2000/svg">
<path d="M45.0955 46.8226C46.3485 50.5124 47.6092 54.3406 47.271 58.2226C47.1326 59.8138 46.6252 61.5204 45.3031 62.4198C44.3499 63.0732 43.0892 63.1885 41.9669 62.9194C40.8445 62.6504 39.8298 62.0123 38.9305 61.2821C36.1247 58.9836 34.2874 55.5321 33.9492 51.9192C33.2881 55.3861 32.5655 59.2142 31.2664 62.8349C30.7975 64.1494 30.1441 65.5484 28.8757 66.1403C27.7688 66.6553 26.4005 66.4017 25.3935 65.6945C24.3865 64.9873 23.71 63.9034 23.2488 62.7734C21.696 58.9298 22.4647 54.5943 23.2488 50.5201C22.0803 53.0107 20.2816 56.1394 17.8832 58.6915C16.5379 60.1213 14.6469 61.4589 12.7559 60.9131C11.6566 60.5979 10.8111 59.6755 10.3575 58.6223C9.91167 57.5692 9.81173 56.4008 9.83479 55.2631C9.8886 51.458 11.1493 47.6759 13.3939 44.6011C10.8802 46.5459 7.92839 48.0295 4.79974 48.6675C3.99259 48.829 3.1547 48.9366 2.35525 48.7752C1.5481 48.6137 0.7717 48.1371 0.418094 47.3992C-0.027758 46.469 0.272035 45.3544 0.702513 44.4243C2.60123 40.3578 6.73688 37.8902 10.5266 35.8993C6.906 34.5156 3.73124 31.9942 1.56348 28.781C0.533404 27.2513 -0.28912 25.3679 0.248977 23.5999C0.748638 21.9626 2.3783 20.8249 4.07715 20.6019C5.776 20.379 7.5056 20.9479 8.95846 21.8549C10.4113 22.762 11.6413 23.9843 13.6245 25.1758C10.8956 21.4168 9.37357 16.7968 9.31207 12.1538C9.28901 10.4703 9.60418 8.52551 11.0494 7.64918C12.7559 6.61142 14.9698 7.68762 16.4841 8.99442C19.0209 11.1929 20.935 14.114 22.6799 17.4195C21.7805 13.2992 21.8651 8.96368 22.9259 4.88183C23.318 3.38285 23.956 1.76856 25.3474 1.0844C26.7848 0.37719 28.6067 0.969098 29.729 2.10679C30.8513 3.24448 31.4125 4.82802 31.8045 6.38081C32.627 9.6632 32.8346 13.0686 33.2189 16.5355C34.6026 12.1 36.0478 7.54925 38.9305 3.90557C39.5531 3.12148 40.2526 2.37583 41.1367 1.89923C42.0207 1.42263 43.1122 1.26889 44.027 1.69168C45.0878 2.17597 45.6951 3.34441 45.8181 4.50516C45.9411 5.65822 45.649 6.81898 45.3338 7.93361C44.2807 11.6311 42.9047 15.244 41.9592 19.5104C45.6259 16.1281 49.4618 12.6458 54.2201 11.1391C56.0266 10.5703 58.325 10.4473 59.4704 11.954C60.7003 13.5682 59.7625 15.9051 58.6402 17.5963C56.1111 21.3937 52.7749 24.5839 49.8615 28.2429C54.0894 27.1206 58.4403 25.9906 62.7835 26.4672C63.706 26.5671 64.6361 26.7516 65.4433 27.1975C66.2504 27.6433 66.9345 28.4044 67.1037 29.3114C67.4342 31.0564 65.8891 32.5708 64.3901 33.5163C60.954 35.6687 56.9951 36.791 53.0363 38.2515C55.8882 40.5577 58.8247 42.9637 60.5005 46.2307C61.2768 47.7451 61.7304 49.6438 60.831 51.0813C60.2468 52.0191 59.1783 52.5726 58.0867 52.7417C56.9951 52.9108 55.8882 52.7417 54.812 52.488C50.7686 51.5271 47.0173 49.3594 45.1109 46.838L45.0955 46.8226Z" fill="#ED66FF"/>
</svg>
