<svg width="36" height="36" viewBox="0 0 36 36" fill="none" xmlns="http://www.w3.org/2000/svg">
<path d="M29.4155 12.1424H23.4955V6.22243C23.4955 3.05243 20.9255 0.482422 17.7555 0.482422C14.5855 0.482422 12.0155 3.05243 12.0155 6.22243V12.1424H6.09547C2.92547 12.1424 0.355469 14.7124 0.355469 17.8824C0.355469 21.0524 2.92547 23.6324 6.09547 23.6324H12.0155V29.5524C12.0155 32.7224 14.5855 35.3024 17.7555 35.3024C20.9255 35.3024 23.4955 32.7324 23.4955 29.5524V23.6324H29.4155C32.5855 23.6324 35.1555 21.0624 35.1555 17.8824C35.1555 14.7024 32.5855 12.1424 29.4155 12.1424Z" fill="#FAA634"/>
</svg>
