<svg width="47" height="44" viewBox="0 0 47 44" fill="none" xmlns="http://www.w3.org/2000/svg">
<path d="M46.2644 1.70197V30.0854C46.2644 31.0145 45.5004 31.7724 44.5622 31.7724H32.632C31.7028 31.7724 30.9374 32.5287 30.9374 33.4745V41.5124C30.9374 42.4415 30.1735 43.1994 29.2428 43.1994H17.0216C16.0757 43.1994 15.3194 42.443 15.3194 41.5124V33.4745C15.3194 32.5287 14.563 31.7724 13.6324 31.7724H1.69458C0.756344 31.7724 0 31.016 0 30.0854V1.70197C0 0.228692 1.74914 -0.544326 2.84501 0.440892L15.0663 11.583L15.0738 11.5905C15.1375 11.6451 15.1921 11.7163 15.2391 11.78C15.4831 12.071 15.618 12.45 15.618 12.8365V29.7853C15.618 30.7235 16.3743 31.4798 17.3126 31.4798H28.9503C29.8809 31.4798 30.6373 30.7235 30.6373 29.7853V12.8365C30.6373 12.356 30.8419 11.8982 31.1966 11.583L43.4178 0.440892C44.5076 -0.542811 46.2644 0.228692 46.2644 1.70197Z" fill="url(#paint0_linear_2001_660)"/>
<defs>
<linearGradient id="paint0_linear_2001_660" x1="49.4152" y1="38.999" x2="3.33942" y2="-1.51432" gradientUnits="userSpaceOnUse">
<stop stop-color="#3200FF"/>
<stop offset="1" stop-color="#9A00FF"/>
</linearGradient>
</defs>
</svg>
