<svg width="205" height="44" viewBox="0 0 205 44" fill="none" xmlns="http://www.w3.org/2000/svg">
<path d="M46.2644 2.00085V30.3842C46.2644 31.3134 45.5004 32.0712 44.5622 32.0712H32.632C31.7028 32.0712 30.9374 32.8276 30.9374 33.7734V41.8113C30.9374 42.7404 30.1735 43.4983 29.2428 43.4983H17.0216C16.0757 43.4983 15.3194 42.7419 15.3194 41.8113V33.7734C15.3194 32.8276 14.563 32.0712 13.6324 32.0712H1.69458C0.756344 32.0712 0 31.3149 0 30.3842V2.00085C0 0.527566 1.74914 -0.245452 2.84501 0.739766L15.0663 11.8818L15.0738 11.8894C15.1375 11.944 15.1921 12.0152 15.2391 12.0789C15.4831 12.3699 15.618 12.7488 15.618 13.1353V30.0841C15.618 31.0224 16.3743 31.7787 17.3126 31.7787H28.9503C29.8809 31.7787 30.6373 31.0224 30.6373 30.0841V13.1353C30.6373 12.6549 30.8419 12.1971 31.1966 11.8818L43.4178 0.739766C44.5076 -0.243937 46.2644 0.527566 46.2644 2.00085Z" fill="url(#paint0_linear_28_349)"/>
<path d="M76.0741 14.6121H67.2763V20.7398H74.3967V24.5396H67.2763V34.3986H63.1684V10.4357H76.0741V14.6121ZM101.587 22.3487C101.587 24.0603 101.278 25.6693 100.662 27.1755C100.069 28.6589 99.2359 29.9598 98.1633 31.078C97.0907 32.1963 95.8469 33.0749 94.4319 33.7139C93.017 34.3529 91.4993 34.6725 89.879 34.6725C88.2358 34.6725 86.7068 34.3529 85.2918 33.7139C83.8769 33.0521 82.6331 32.1621 81.5605 31.0438C80.4878 29.9027 79.6434 28.5904 79.0272 27.107C78.4339 25.6008 78.1372 24.0147 78.1372 22.3487C78.1372 20.6827 78.4453 19.1194 79.0615 17.6588C79.6777 16.1754 80.5335 14.8746 81.6289 13.7563C82.7244 12.6152 83.9796 11.7252 85.3945 11.0861C86.8095 10.4471 88.3043 10.1276 89.879 10.1276C91.4993 10.1276 93.0056 10.4471 94.3977 11.0861C95.8126 11.7252 97.0564 12.6152 98.1291 13.7563C99.2245 14.8746 100.069 16.1754 100.662 17.6588C101.278 19.1194 101.587 20.6827 101.587 22.3487ZM97.3417 22.3487C97.3417 20.8425 96.9994 19.4732 96.3147 18.2408C95.6529 17.0084 94.7514 16.0271 93.6103 15.2968C92.4921 14.5436 91.2483 14.1671 89.879 14.1671C88.5097 14.1671 87.2545 14.5436 86.1134 15.2968C84.9723 16.0499 84.0594 17.054 83.3748 18.3092C82.713 19.5416 82.382 20.8881 82.382 22.3487C82.382 23.8549 82.713 25.2356 83.3748 26.4908C84.0594 27.746 84.9723 28.7502 86.1134 29.5033C87.2545 30.2564 88.5097 30.633 89.879 30.633C91.2711 30.633 92.5263 30.2564 93.6446 29.5033C94.7628 28.7502 95.6529 27.746 96.3147 26.4908C96.9994 25.2128 97.3417 23.8321 97.3417 22.3487ZM102.608 34.3986L110.105 22.246L102.745 10.4357H107.777L112.604 19.1308L117.431 10.4357H122.463L115.069 22.246L122.6 34.3986H117.568L112.604 25.4296L107.64 34.3986H102.608ZM143.005 14.2013H136.227V34.3986H132.119V14.2013H125.341V10.4357H143.005V14.2013ZM158.981 34.3986H146.076V10.4357H158.981V14.2698H150.184V20.9452H157.304V24.4027H150.184V30.5645H158.981V34.3986ZM173.086 34.7751C171.443 34.7751 169.925 34.4556 168.533 33.8166C167.141 33.1548 165.909 32.2876 164.836 31.215C163.764 30.1195 162.919 28.8415 162.303 27.3809C161.687 25.8975 161.379 24.2543 161.379 22.4514C161.379 20.6941 161.687 19.0738 162.303 17.5904C162.942 16.0841 163.786 14.7719 164.836 13.6536C165.886 12.5582 167.107 11.6909 168.499 11.0519C169.914 10.4129 171.443 10.0934 173.086 10.0934C174.821 10.0934 176.475 10.4928 178.05 11.2915C179.625 12.0675 181.085 13.277 182.432 14.9202L179.111 17.6588C178.176 16.4949 177.206 15.6619 176.201 15.1598C175.197 14.6349 174.159 14.3725 173.086 14.3725C172.059 14.3725 171.101 14.5779 170.211 14.9887C169.344 15.3995 168.556 15.97 167.849 16.7003C167.164 17.4078 166.628 18.2522 166.24 19.2335C165.852 20.192 165.658 21.2647 165.658 22.4514C165.658 23.6381 165.852 24.7107 166.24 25.6693C166.628 26.605 167.164 27.4379 167.849 28.1682C168.533 28.8985 169.321 29.4691 170.211 29.8799C171.101 30.2907 172.059 30.4961 173.086 30.4961C174.159 30.4961 175.197 30.245 176.201 29.7429C177.206 29.218 178.176 28.3736 179.111 27.2097L182.432 29.9483C181.085 31.5915 179.625 32.8125 178.05 33.6112C176.475 34.3872 174.821 34.7751 173.086 34.7751ZM202.606 34.3986H198.498V24.6423H189.631V34.3986H185.523V10.4357H189.631V20.8767H198.498V10.4357H202.606V34.3986Z" fill="black"/>
<defs>
<linearGradient id="paint0_linear_28_349" x1="49.4152" y1="39.2979" x2="3.33942" y2="-1.21545" gradientUnits="userSpaceOnUse">
<stop stop-color="#3200FF"/>
<stop offset="1" stop-color="#9A00FF"/>
</linearGradient>
</defs>
</svg>
