<svg width="33" height="33" viewBox="0 0 33 33" fill="none" xmlns="http://www.w3.org/2000/svg">
<path d="M6.28166 27.6214C5.54833 27.6214 4.92033 27.3601 4.39766 26.8374C3.87499 26.3148 3.6141 25.6872 3.61499 24.9548V8.95475C3.61499 8.22142 3.87633 7.59342 4.39899 7.07075C4.92166 6.54809 5.54921 6.2872 6.28166 6.28809H27.615C28.3483 6.28809 28.9763 6.54942 29.499 7.07209C30.0217 7.59475 30.2825 8.22231 30.2817 8.95475V24.9548C30.2817 25.6881 30.0203 26.3161 29.4977 26.8388C28.975 27.3614 28.3474 27.6223 27.615 27.6214H6.28166ZM16.9483 18.0548C17.0594 18.0548 17.1763 18.0379 17.299 18.0041C17.4217 17.9703 17.5381 17.9205 17.6483 17.8548L27.0817 11.9548C27.2594 11.8436 27.3928 11.7045 27.4817 11.5374C27.5705 11.3703 27.615 11.1872 27.615 10.9881C27.615 10.5436 27.4261 10.2103 27.0483 9.98809C26.6705 9.76587 26.2817 9.77698 25.8817 10.0214L19.604 13.9567C17.9799 14.9748 15.9167 14.9748 14.2927 13.9567L8.01499 10.0214C7.61499 9.77698 7.2261 9.77164 6.84833 10.0054C6.47055 10.2392 6.28166 10.5668 6.28166 10.9881C6.28166 11.2103 6.3261 11.405 6.41499 11.5721C6.50388 11.7392 6.63721 11.8668 6.81499 11.9548L16.2483 17.8548C16.3594 17.9214 16.4763 17.9716 16.599 18.0054C16.7217 18.0392 16.8381 18.0556 16.9483 18.0548Z" fill="url(#paint0_linear_333_919)"/>
<defs>
<linearGradient id="paint0_linear_333_919" x1="38.9539" y1="16.9548" x2="10.2267" y2="2.50716" gradientUnits="userSpaceOnUse">
<stop stop-color="#3200FF"/>
<stop offset="1" stop-color="#9A00FF"/>
</linearGradient>
</defs>
</svg>
