<svg width="205" height="44" viewBox="0 0 205 44" fill="none" xmlns="http://www.w3.org/2000/svg">
<path d="M46.2644 2.05743V30.4408C46.2644 31.37 45.5004 32.1278 44.5622 32.1278H32.632C31.7028 32.1278 30.9374 32.8842 30.9374 33.83V41.8678C30.9374 42.797 30.1735 43.5548 29.2428 43.5548H17.0216C16.0757 43.5548 15.3194 42.7985 15.3194 41.8678V33.83C15.3194 32.8842 14.563 32.1278 13.6324 32.1278H1.69458C0.756344 32.1278 0 31.3715 0 30.4408V2.05743C0 0.584146 1.74914 -0.188873 2.84501 0.796346L15.0663 11.9384L15.0738 11.946C15.1375 12.0006 15.1921 12.0718 15.2391 12.1355C15.4831 12.4265 15.618 12.8054 15.618 13.1919V30.1407C15.618 31.0789 16.3743 31.8353 17.3126 31.8353H28.9503C29.8809 31.8353 30.6373 31.0789 30.6373 30.1407V13.1919C30.6373 12.7114 30.8419 12.2537 31.1966 11.9384L43.4178 0.796346C44.5076 -0.187357 46.2644 0.584146 46.2644 2.05743Z" fill="white"/>
<path d="M76.0741 14.6686H67.2763V20.7962H74.3967V24.5961H67.2763V34.4551H63.1684V10.4922H76.0741V14.6686ZM101.586 22.4052C101.586 24.1168 101.278 25.7257 100.662 27.232C100.069 28.7154 99.2359 30.0162 98.1632 31.1345C97.0906 32.2528 95.8468 33.1314 94.4319 33.7704C93.0169 34.4094 91.4993 34.7289 89.8789 34.7289C88.2358 34.7289 86.7067 34.4094 85.2917 33.7704C83.8768 33.1086 82.633 32.2185 81.5604 31.1003C80.4878 29.9592 79.6434 28.6469 79.0272 27.1635C78.4338 25.6573 78.1371 24.0712 78.1371 22.4052C78.1371 20.7392 78.4452 19.1759 79.0614 17.7153C79.6776 16.2319 80.5334 14.9311 81.6289 13.8128C82.7243 12.6717 83.9795 11.7816 85.3944 11.1426C86.8094 10.5036 88.3042 10.1841 89.8789 10.1841C91.4993 10.1841 93.0055 10.5036 94.3976 11.1426C95.8126 11.7816 97.0564 12.6717 98.129 13.8128C99.2244 14.9311 100.069 16.2319 100.662 17.7153C101.278 19.1759 101.586 20.7392 101.586 22.4052ZM97.3416 22.4052C97.3416 20.8989 96.9993 19.5296 96.3147 18.2973C95.6528 17.0649 94.7514 16.0836 93.6103 15.3533C92.492 14.6001 91.2482 14.2236 89.8789 14.2236C88.5096 14.2236 87.2544 14.6001 86.1133 15.3533C84.9722 16.1064 84.0594 17.1105 83.3747 18.3657C82.7129 19.5981 82.382 20.9446 82.382 22.4052C82.382 23.9114 82.7129 25.2921 83.3747 26.5473C84.0594 27.8025 84.9722 28.8067 86.1133 29.5598C87.2544 30.3129 88.5096 30.6895 89.8789 30.6895C91.2711 30.6895 92.5263 30.3129 93.6445 29.5598C94.7628 28.8067 95.6528 27.8025 96.3147 26.5473C96.9993 25.2693 97.3416 23.8886 97.3416 22.4052ZM102.608 34.4551L110.105 22.3025L102.745 10.4922H107.777L112.604 19.1873L117.431 10.4922H122.463L115.069 22.3025L122.6 34.4551H117.568L112.604 25.4861L107.64 34.4551H102.608ZM143.005 14.2578H136.227V34.4551H132.119V14.2578H125.341V10.4922H143.005V14.2578ZM158.981 34.4551H146.076V10.4922H158.981V14.3263H150.183V21.0016H157.304V24.4591H150.183V30.621H158.981V34.4551ZM173.086 34.8316C171.443 34.8316 169.925 34.5121 168.533 33.8731C167.141 33.2113 165.909 32.3441 164.836 31.2714C163.764 30.176 162.919 28.898 162.303 27.4374C161.687 25.954 161.379 24.3108 161.379 22.5079C161.379 20.7506 161.687 19.1303 162.303 17.6468C162.942 16.1406 163.786 14.8284 164.836 13.7101C165.886 12.6146 167.107 11.7474 168.499 11.1084C169.914 10.4694 171.443 10.1499 173.086 10.1499C174.821 10.1499 176.475 10.5493 178.05 11.348C179.625 12.124 181.085 13.3335 182.432 14.9767L179.111 17.7153C178.175 16.5514 177.206 15.7184 176.201 15.2163C175.197 14.6914 174.159 14.429 173.086 14.429C172.059 14.429 171.101 14.6344 170.211 15.0452C169.343 15.456 168.556 16.0265 167.849 16.7568C167.164 17.4643 166.628 18.3087 166.24 19.29C165.852 20.2485 165.658 21.3211 165.658 22.5079C165.658 23.6946 165.852 24.7672 166.24 25.7257C166.628 26.6614 167.164 27.4944 167.849 28.2247C168.533 28.955 169.321 29.5256 170.211 29.9364C171.101 30.3472 172.059 30.5526 173.086 30.5526C174.159 30.5526 175.197 30.3015 176.201 29.7994C177.206 29.2745 178.175 28.4301 179.111 27.2662L182.432 30.0048C181.085 31.648 179.625 32.869 178.05 33.6677C176.475 34.4437 174.821 34.8316 173.086 34.8316ZM202.605 34.4551H198.498V24.6988H189.631V34.4551H185.523V10.4922H189.631V20.9332H198.498V10.4922H202.605V34.4551Z" fill="white"/>
</svg>
