<svg width="25" height="25" viewBox="0 0 25 25" fill="none" xmlns="http://www.w3.org/2000/svg">
<path d="M23.5484 24.9551C20.7706 24.9551 18.0208 24.3551 15.299 23.1551C12.5773 21.9551 10.1048 20.244 7.8817 18.0217C5.65948 15.7995 3.94836 13.3329 2.74836 10.6217C1.54836 7.91063 0.948364 5.15508 0.948364 2.35508C0.948364 1.58188 1.57517 0.955078 2.34836 0.955078H5.24071C7.31159 0.955078 9.08721 2.43367 9.46212 4.47034L9.64898 5.48542C9.89918 6.84466 9.46823 8.2403 8.49524 9.22183L8.33291 9.38558C7.0996 10.6297 6.81167 12.568 7.8817 13.9551C8.4817 14.7329 9.12614 15.4551 9.81503 16.1217C10.4595 16.7662 11.1653 17.3831 11.9324 17.9724C13.3282 19.0448 15.2796 18.7572 16.5242 17.5126L16.6855 17.3513C17.682 16.3547 19.1125 15.9254 20.493 16.2084L21.5007 16.415C23.5076 16.8264 24.9484 18.5925 24.9484 20.6411V23.5551C24.9484 24.3283 24.3216 24.9551 23.5484 24.9551Z" fill="url(#paint0_linear_333_916)"/>
<defs>
<linearGradient id="paint0_linear_333_916" x1="32.7534" y1="12.9551" x2="4.87267" y2="1.73759" gradientUnits="userSpaceOnUse">
<stop stop-color="#3200FF"/>
<stop offset="1" stop-color="#9A00FF"/>
</linearGradient>
</defs>
</svg>
