<svg width="19" height="19" viewBox="0 0 19 19" fill="none" xmlns="http://www.w3.org/2000/svg">
<path d="M10.726 0.806641C11.7426 0.809351 12.2585 0.814773 12.7039 0.827423L12.8792 0.833748C13.0816 0.840976 13.2813 0.850012 13.5226 0.860855C14.484 0.906033 15.14 1.05783 15.7155 1.28101C16.3119 1.51052 16.8143 1.82135 17.3167 2.32283C17.7763 2.77437 18.1318 3.32079 18.3585 3.92395C18.5817 4.49952 18.7334 5.15551 18.7786 6.11781C18.7895 6.35816 18.7985 6.55784 18.8057 6.76115L18.8112 6.93644C18.8247 7.38099 18.8301 7.89693 18.8319 8.91344L18.8328 9.5875V10.7712C18.835 11.4302 18.8281 12.0893 18.8121 12.7482L18.8066 12.9235C18.7994 13.1268 18.7904 13.3265 18.7795 13.5668C18.7344 14.5291 18.5807 15.1842 18.3585 15.7607C18.1318 16.3638 17.7763 16.9103 17.3167 17.3618C16.8651 17.8214 16.3187 18.177 15.7155 18.4036C15.14 18.6268 14.484 18.7786 13.5226 18.8238L12.8792 18.8509L12.7039 18.8563C12.2585 18.8689 11.7426 18.8753 10.726 18.8771L10.052 18.878H8.86921C8.20984 18.8803 7.55047 18.8734 6.8913 18.8572L6.71601 18.8518C6.50151 18.8437 6.28706 18.8343 6.07267 18.8238C5.11127 18.7786 4.45528 18.6268 3.87881 18.4036C3.27597 18.1769 2.72987 17.8213 2.27859 17.3618C1.81862 16.9103 1.46277 16.3639 1.23587 15.7607C1.01269 15.1851 0.860893 14.5291 0.815714 13.5668L0.788607 12.9235L0.78409 12.7482C0.767433 12.0893 0.759903 11.4303 0.7615 10.7712V8.91344C0.758999 8.25438 0.765626 7.59532 0.781379 6.93644L0.787704 6.76115C0.794932 6.55784 0.803968 6.35816 0.814811 6.11781C0.859989 5.15551 1.01179 4.50042 1.23497 3.92395C1.46239 3.32054 1.81888 2.7741 2.27949 2.32283C2.73051 1.86341 3.2763 1.50788 3.87881 1.28101C4.45528 1.05783 5.11037 0.906033 6.07267 0.860855C6.31302 0.850012 6.51361 0.840976 6.71601 0.833748L6.8913 0.828326C7.55017 0.812272 8.20924 0.805344 8.8683 0.807544L10.726 0.806641ZM9.79717 5.32448C8.59897 5.32448 7.44984 5.80046 6.60258 6.64772C5.75532 7.49498 5.27934 8.64411 5.27934 9.84231C5.27934 11.0405 5.75532 12.1896 6.60258 13.0369C7.44984 13.8842 8.59897 14.3601 9.79717 14.3601C10.9954 14.3601 12.1445 13.8842 12.9918 13.0369C13.839 12.1896 14.315 11.0405 14.315 9.84231C14.315 8.64411 13.839 7.49498 12.9918 6.64772C12.1445 5.80046 10.9954 5.32448 9.79717 5.32448ZM9.79717 7.13161C10.1531 7.13155 10.5056 7.20161 10.8345 7.33778C11.1634 7.47395 11.4623 7.67357 11.7141 7.92524C11.9658 8.17691 12.1655 8.4757 12.3018 8.80455C12.4381 9.13341 12.5083 9.48588 12.5083 9.84186C12.5084 10.1978 12.4383 10.5503 12.3022 10.8792C12.166 11.2081 11.9664 11.507 11.7147 11.7587C11.463 12.0105 11.1642 12.2102 10.8354 12.3465C10.5065 12.4828 10.154 12.553 9.79807 12.553C9.07915 12.553 8.38968 12.2674 7.88132 11.7591C7.37296 11.2507 7.08737 10.5612 7.08737 9.84231C7.08737 9.12339 7.37296 8.43391 7.88132 7.92555C8.38968 7.4172 9.07915 7.13161 9.79807 7.13161M14.5418 3.96913C14.2423 3.96913 13.955 4.08812 13.7432 4.29994C13.5313 4.51175 13.4123 4.79903 13.4123 5.09858C13.4123 5.39813 13.5313 5.68542 13.7432 5.89723C13.955 6.10905 14.2423 6.22804 14.5418 6.22804C14.8414 6.22804 15.1286 6.10905 15.3405 5.89723C15.5523 5.68542 15.6713 5.39813 15.6713 5.09858C15.6713 4.79903 15.5523 4.51175 15.3405 4.29994C15.1286 4.08812 14.8414 3.96913 14.5418 3.96913Z" fill="white"/>
</svg>
