<svg width="21" height="14" viewBox="0 0 21 14" fill="none" xmlns="http://www.w3.org/2000/svg">
<path d="M20.1211 2.22094C20.5524 3.73049 20.5524 6.96523 20.5524 6.96523C20.5524 6.96523 20.5524 10.164 20.1211 11.7095C19.9054 12.5721 19.2226 13.2191 18.3959 13.4347C16.8504 13.8301 10.7403 13.8301 10.7403 13.8301C10.7403 13.8301 4.59433 13.8301 3.04884 13.4347C2.22218 13.2191 1.53929 12.5721 1.32364 11.7095C0.892343 10.164 0.892343 6.96523 0.892343 6.96523C0.892343 6.96523 0.892343 3.73049 1.32364 2.22094C1.53929 1.35834 2.22218 0.675452 3.04884 0.459803C4.59433 0.0285034 10.7403 0.0285034 10.7403 0.0285034C10.7403 0.0285034 16.8504 0.0285034 18.3959 0.459803C19.2226 0.675452 19.9054 1.35834 20.1211 2.22094ZM8.72761 9.8765L13.8313 6.96523L8.72761 4.05396V9.8765Z" fill="white"/>
</svg>
